<?xml version="1.0" encoding="utf-8"?>
<!-- Generator: Adobe Illustrator 23.0.3, SVG Export Plug-In . SVG Version: 6.00 Build 0)  -->
<svg version="1.1" id="Capa_1" xmlns="http://www.w3.org/2000/svg" xmlns:xlink="http://www.w3.org/1999/xlink" x="0px" y="0px"
	 viewBox="0 0 375 373" style="enable-background:new 0 0 375 373;" xml:space="preserve">
<style type="text/css">
	.st0{fill:url(#SVGID_1_);}
	.st1{fill:url(#SVGID_2_);}
	.st2{fill:url(#SVGID_3_);}
	.st3{fill:url(#SVGID_4_);}
</style>
<g>
	
		<image style="overflow:visible;opacity:0.35;enable-background:new    ;" width="292" height="292" xlink:href="FEE6BB88.png"  transform="matrix(1 0 0 1 83 0)">
	</image>
	<g>
		
			<linearGradient id="SVGID_1_" gradientUnits="userSpaceOnUse" x1="12.5971" y1="265.9559" x2="158.9292" y2="152.8005" gradientTransform="matrix(0.7071 0.7071 0.7071 -0.7071 12.6201 219.6567)">
			<stop  offset="0" style="stop-color:#FF4200"/>
			<stop  offset="0.193" style="stop-color:#FD4600"/>
			<stop  offset="0.3361" style="stop-color:#FA4E00"/>
			<stop  offset="0.534" style="stop-color:#FF5B33"/>
			<stop  offset="0.7448" style="stop-color:#EB7726"/>
			<stop  offset="1" style="stop-color:#E77F00"/>
		</linearGradient>
		<path class="st0" d="M111.4,249.7L111.4,249.7c-10.3-10.3-10.3-26.9,0-37.2L295.8,28.1c10.3-10.3,26.9-10.3,37.2,0l0,0
			c10.3,10.3,10.3,26.9,0,37.2L148.6,249.7C138.3,260,121.7,260,111.4,249.7z"/>
	</g>
</g>
<g>
	
		<image style="overflow:visible;opacity:0.35;enable-background:new    ;" width="155" height="155" xlink:href="FEE6BB89.png"  transform="matrix(1 0 0 1 96 32)">
	</image>
	<g>
		
			<linearGradient id="SVGID_2_" gradientUnits="userSpaceOnUse" x1="-6.5136" y1="216.6135" x2="53.7212" y2="170.0352" gradientTransform="matrix(0.7071 0.7071 0.7071 -0.7071 12.6201 219.6567)">
			<stop  offset="0" style="stop-color:#FF5B33"/>
			<stop  offset="0.1761" style="stop-color:#E83D00"/>
			<stop  offset="0.4214" style="stop-color:#FF6F00"/>
			<stop  offset="0.7074" style="stop-color:#DC8900"/>
			<stop  offset="1" style="stop-color:#F6B900"/>
		</linearGradient>
		<path class="st1" d="M118.3,150.5L118.3,150.5c-2.1-2.1-2.1-5.4,0-7.4L207,54.3c2.1-2.1,5.4-2.1,7.4,0l0,0c2.1,2.1,2.1,5.4,0,7.5
			l-88.7,88.7C123.7,152.5,120.3,152.5,118.3,150.5z"/>
	</g>
</g>
<g>
	
		<image style="overflow:visible;opacity:0.35;enable-background:new    ;" width="196" height="196" xlink:href="FEE6BB8F.png"  transform="matrix(1 0 0 1 101 177)">
	</image>
	<g>
		
			<linearGradient id="SVGID_3_" gradientUnits="userSpaceOnUse" x1="115.2194" y1="127.8828" x2="200.6261" y2="61.8396" gradientTransform="matrix(0.7071 0.7071 0.7071 -0.7071 12.6201 219.6567)">
			<stop  offset="0" style="stop-color:#F6B900"/>
			<stop  offset="0.2926" style="stop-color:#DC8900"/>
			<stop  offset="0.5786" style="stop-color:#FF6F00"/>
			<stop  offset="0.8239" style="stop-color:#E83D00"/>
			<stop  offset="1" style="stop-color:#FF5B33"/>
		</linearGradient>
		<path class="st2" d="M123.7,336.3L123.7,336.3c-2.9-2.9-2.9-7.6,0-10.6l125.8-125.8c2.9-2.9,7.7-2.9,10.6,0l0,0
			c2.9,2.9,2.9,7.6,0,10.6L134.2,336.3C131.3,339.2,126.6,339.2,123.7,336.3z"/>
	</g>
</g>
<g>
	
		<image style="overflow:visible;opacity:0.35;enable-background:new    ;" width="302" height="302" xlink:href="FEE6BB8A.png"  transform="matrix(1 0 0 1 0 54)">
	</image>
	<g>
		
			<linearGradient id="SVGID_4_" gradientUnits="userSpaceOnUse" x1="129.9189" y1="284.143" x2="157.4701" y2="68.6547" gradientTransform="matrix(1 0 0 -1 0 374)">
			<stop  offset="0" style="stop-color:#F6B900"/>
			<stop  offset="0.2926" style="stop-color:#DC8900"/>
			<stop  offset="0.5786" style="stop-color:#FF6F00"/>
			<stop  offset="0.8239" style="stop-color:#E83D00"/>
			<stop  offset="1" style="stop-color:#FF5B33"/>
		</linearGradient>
		<path class="st3" d="M33.9,321c-3.5,0-7-1.3-9.7-4c-5.3-5.3-5.3-14,0-19.3L243.8,78.2c5.3-5.3,14-5.3,19.3,0
			c5.3,5.3,5.3,14,0,19.3L43.6,317C40.9,319.7,37.4,321,33.9,321z M253.5,75.4c-3.2,0-6.4,1.2-8.8,3.6L25.1,298.6
			c-4.8,4.8-4.8,12.7,0,17.6c4.8,4.8,12.7,4.8,17.6,0L262.3,96.6c4.8-4.8,4.8-12.7,0-17.6C259.8,76.6,256.6,75.4,253.5,75.4z"/>
	</g>
</g>
</svg>
