<?xml version="1.0" encoding="utf-8"?>
<!-- Generator: Adobe Illustrator 23.0.3, SVG Export Plug-In . SVG Version: 6.00 Build 0)  -->
<svg version="1.1" id="Capa_1" xmlns="http://www.w3.org/2000/svg" xmlns:xlink="http://www.w3.org/1999/xlink" x="0px" y="0px"
	 viewBox="0 0 69.58 65.62" style="enable-background:new 0 0 69.58 65.62;" xml:space="preserve">
<style type="text/css">
	.st0{fill:url(#SVGID_1_);}
</style>
<linearGradient id="SVGID_1_" gradientUnits="userSpaceOnUse" x1="0" y1="32.8191" x2="69.5776" y2="32.8191">
	<stop  offset="3.736044e-07" style="stop-color:#09BEF1"/>
	<stop  offset="1" style="stop-color:#045DE1"/>
</linearGradient>
<path class="st0" d="M45.06,49.56c0,1.19,0,2.33,0,3.47c0,1.6,0.07,3.2-0.39,4.76c-1.12,3.78-3.59,6.24-7.33,7.4
	c-0.9,0.28-1.88,0.41-2.83,0.41c-8.09,0.03-16.19,0.05-24.28-0.01c-4.48-0.03-8.6-3.29-9.78-7.62c-0.28-1.04-0.43-2.15-0.43-3.23
	C0,40.21-0.01,25.68,0.01,11.14c0.01-4.62,2.17-7.94,6.3-9.97c1.45-0.71,3-0.94,4.6-0.94c7.72,0,15.44,0.01,23.17,0
	c2.76-0.01,5.18,0.83,7.28,2.64c0.06,0.05,0.13,0.09,0.25,0.18c-0.02-0.35-0.05-0.63-0.06-0.91C41.48,0.76,42.18,0.01,43.56,0
	c3.35,0,6.7,0,10.04,0c0.81,0,1.62-0.01,2.42,0c1.22,0.01,1.96,0.77,1.89,1.99c-0.15,2.44-0.81,4.7-2.46,6.58
	c-0.03,0.04-0.05,0.08-0.09,0.17c0.56,0.06,1.11,0.1,1.64,0.19c3.8,0.64,6.32,2.87,7.82,6.33c0.77,1.77,1.05,3.64,1.05,5.56
	c0,5.67,0,11.34,0.01,17.01c0,0.21,0.06,0.51,0.2,0.6c1.68,1.05,2.55,2.63,3.04,4.47c0.43,1.63,0.55,3.28,0.39,4.95
	c-0.11,1.12-0.76,1.7-1.91,1.7c-7.28,0-14.57,0-21.85,0C45.54,49.56,45.34,49.56,45.06,49.56z M41.31,9.07
	c-0.78-3.16-3.67-5.35-7.04-5.35c-7.84-0.01-15.68-0.01-23.52,0c-4.08,0-7.26,3.13-7.26,7.22C3.46,25.6,3.48,40.25,3.48,54.91
	c0,1.06,0.19,2.09,0.66,3.03c1.39,2.8,3.68,4.21,6.8,4.22c7.71,0.01,15.41,0,23.12,0c0.24,0,0.47,0,0.71-0.01
	c3.33-0.17,6.26-2.67,6.65-5.98c0.25-2.14,0.11-4.33,0.14-6.5c0-0.03-0.03-0.05-0.08-0.11c-0.16,0-0.34,0-0.52,0
	c-3.01,0-6.02,0-9.04,0c-1.21,0-1.9-0.61-1.97-1.82c-0.1-1.72-0.02-3.43,0.47-5.1c0.48-1.62,1.27-3.04,2.72-4
	c0.35-0.23,0.48-0.47,0.47-0.89c-0.01-5.6-0.04-11.21,0.01-16.81c0.01-1.3,0.17-2.62,0.48-3.89c0.6-2.48,1.86-4.6,3.87-6.23
	C38.95,10.02,40.05,9.43,41.31,9.07z M62.38,37.76c0.01-0.16,0.02-0.24,0.02-0.32c0-5.67,0.01-11.34-0.01-17.01
	c-0.01-1.94-0.56-3.76-1.66-5.37c-1.13-1.65-2.64-2.76-4.71-2.78c-4.19-0.04-8.38-0.03-12.57,0c-1.82,0.01-3.24,0.9-4.35,2.3
	c-1.42,1.79-2.01,3.86-2.02,6.11c-0.01,5.89,0,11.78,0,17.67c0,0.4,0,0.81-0.01,1.21c-0.02,0.66-0.3,1.15-0.92,1.44
	c-0.35,0.16-0.71,0.32-1.03,0.53c-1.6,1.1-1.66,2.79-1.76,4.5c10.93,0,21.81,0,32.72,0c-0.02-1.4-0.19-2.72-1.01-3.87
	c-0.42-0.58-0.96-0.92-1.74-0.91c-3.26,0.03-6.53,0.01-9.79,0.01c-0.64,0-1.25-0.11-1.65-0.68c-0.41-0.59-0.46-1.21-0.17-1.86
	c0.31-0.67,0.86-0.96,1.58-0.96c2.46,0,4.91,0,7.37,0C61.22,37.76,61.78,37.76,62.38,37.76z M54.22,3.54c-3.01,0-5.97,0-8.96,0
	c0.28,1.22,0.83,2.25,1.68,3.09c1.31,1.3,3.1,1.58,4.63,0.71C53.05,6.51,53.77,5.14,54.22,3.54z M22.52,47.6
	c3.4,0,6.13,2.73,6.13,6.12c0,3.37-2.77,6.13-6.14,6.12c-3.35-0.01-6.1-2.76-6.11-6.11C16.39,50.35,19.13,47.6,22.52,47.6z
	 M22.53,56.33c1.44-0.01,2.64-1.2,2.63-2.63c-0.01-1.44-1.2-2.62-2.64-2.63c-1.44,0-2.61,1.19-2.61,2.64
	C19.9,55.18,21.07,56.34,22.53,56.33z M51.47,34.24c0.01-0.24-0.07-0.49,0.29-0.6c0.9-0.29,1.63-0.84,2.27-1.54
	c1.5-1.65,1.65-4.26,0.33-6.06c-1.13-1.54-2.67-2.23-4.54-2.35c-0.45-0.03-0.94-0.15-1.34-0.37c-0.89-0.5-1.04-1.55-0.4-2.27
	c0.77-0.86,2.7-1.04,3.56,0.31c0.56,0.89,1.53,1.05,2.41,0.46c0.79-0.52,1-1.51,0.48-2.35c-0.61-0.99-1.45-1.73-2.55-2.13
	c-0.4-0.15-0.53-0.34-0.53-0.76c-0.02-1.1-0.69-1.75-1.72-1.75c-1.02,0-1.73,0.69-1.74,1.75c0,0.42-0.14,0.59-0.52,0.76
	c-1.91,0.82-3.12,2.25-3.25,4.36c-0.13,2.09,0.86,3.64,2.63,4.72c0.92,0.56,1.95,0.68,2.99,0.79c0.48,0.05,0.99,0.25,1.37,0.53
	c0.79,0.57,0.75,1.63-0.01,2.25c-1.02,0.84-2.56,0.62-3.37-0.49c-0.62-0.85-1.58-1.04-2.38-0.48c-0.89,0.63-1.07,1.55-0.47,2.46
	c0.6,0.91,1.38,1.61,2.4,2c0.43,0.16,0.61,0.36,0.61,0.85c0,1.05,0.71,1.68,1.74,1.68C50.81,36.04,51.43,35.39,51.47,34.24z"/>
</svg>
