<?xml version="1.0" encoding="utf-8"?>
<!-- Generator: Adobe Illustrator 23.0.3, SVG Export Plug-In . SVG Version: 6.00 Build 0)  -->
<svg version="1.1" id="Capa_1" xmlns="http://www.w3.org/2000/svg" xmlns:xlink="http://www.w3.org/1999/xlink" x="0px" y="0px"
	 viewBox="0 0 45.53 48.72" style="enable-background:new 0 0 45.53 48.72;" xml:space="preserve">
<style type="text/css">
	.st0{fill:url(#SVGID_1_);}
</style>
<linearGradient id="SVGID_1_" gradientUnits="userSpaceOnUse" x1="0" y1="24.3623" x2="45.5297" y2="24.3623">
	<stop  offset="3.785202e-07" style="stop-color:#E39605"/>
	<stop  offset="1" style="stop-color:#F35252"/>
</linearGradient>
<path class="st0" d="M23.02,39.05c-1.88-0.07-3.2-0.67-4.17-1.92c-0.54-0.7-1.17-1.2-2.06-1.24c-0.36-0.02-0.74,0.07-1.09,0.17
	c-2.43,0.71-5.02-0.46-6.07-2.76c-0.29-0.62-0.42-1.28-0.42-1.97c0-0.98-0.37-1.78-1.22-2.31c-0.24-0.15-0.53-0.23-0.81-0.34
	c-1.78-0.69-2.82-2-3.17-3.85c-0.25-1.35,0.05-2.6,0.83-3.72c0.75-1.08,0.73-2.14,0-3.23c-1.5-2.23-1.14-4.95,0.92-6.69
	c0.47-0.4,1.06-0.67,1.64-0.9C8.63,9.79,9.2,9.03,9.23,7.72c0.06-2.89,2.37-5.08,5.25-4.96c0.41,0.02,0.83,0.11,1.23,0.22
	c1.27,0.36,2.21,0.1,3.02-0.96c0.93-1.2,2.12-1.9,3.64-2.01c1.71-0.13,3.12,0.49,4.26,1.78c0.3,0.34,0.62,0.7,0.99,0.96
	c0.59,0.42,1.28,0.5,1.97,0.29c1.29-0.39,2.56-0.4,3.79,0.19c1.89,0.9,2.89,2.42,2.97,4.51c0.03,0.68,0.16,1.32,0.66,1.79
	c0.32,0.3,0.71,0.56,1.12,0.72c1.07,0.42,1.97,1.03,2.63,1.98c1.12,1.64,1.16,3.9,0.03,5.54c-0.52,0.75-0.83,1.54-0.54,2.44
	c0.12,0.39,0.37,0.74,0.58,1.09c0.7,1.13,0.97,2.35,0.69,3.66c-0.38,1.76-1.42,2.98-3.09,3.66c-0.49,0.2-0.99,0.36-1.38,0.76
	c-0.53,0.56-0.74,1.22-0.74,1.97c0.02,2.82-2.52,5.02-5.26,4.87c-0.5-0.03-1-0.16-1.49-0.28c-1-0.23-1.87,0-2.53,0.79
	c-0.65,0.8-1.35,1.53-2.34,1.87C24.06,38.83,23.39,38.95,23.02,39.05z M39.07,15.16c0.01-1.28-0.68-2.16-1.86-2.6
	c-2.01-0.74-3.13-2.19-3.37-4.32c-0.06-0.51-0.08-1.05-0.27-1.51c-0.45-1.09-1.72-1.76-3.11-1.31c-1.26,0.41-2.49,0.3-3.69-0.25
	c-0.73-0.34-1.34-0.83-1.82-1.47c-0.46-0.61-1.01-1.06-1.8-1.15c-1.02-0.13-1.83,0.24-2.45,1.06c-0.78,1.03-1.79,1.69-3.06,1.96
	c-0.92,0.2-1.81,0.07-2.7-0.19c-0.88-0.26-1.69-0.09-2.39,0.54c-0.57,0.52-0.81,1.17-0.82,1.93c-0.06,2.29-1.3,3.99-3.45,4.75
	c-1.75,0.62-2.32,2.38-1.31,3.95c0.3,0.47,0.59,0.97,0.76,1.5c0.49,1.56,0.21,3.02-0.71,4.37c-1.06,1.58-0.52,3.3,1.26,3.97
	c2.22,0.84,3.4,2.43,3.46,4.82c0.02,0.73,0.26,1.37,0.82,1.86c0.76,0.67,1.63,0.82,2.59,0.51c1.12-0.36,2.22-0.31,3.31,0.11
	c0.91,0.35,1.65,0.92,2.23,1.7c0.41,0.56,0.95,0.94,1.63,1.06c1.1,0.2,1.95-0.25,2.61-1.12c0.77-1.02,1.81-1.64,3.06-1.9
	c0.91-0.19,1.78-0.04,2.67,0.21c1.55,0.44,3.08-0.69,3.15-2.3c0.02-0.36,0.02-0.73,0.09-1.08c0.38-1.87,1.48-3.13,3.26-3.83
	c0.45-0.18,0.92-0.42,1.25-0.76c0.86-0.88,0.91-2.13,0.18-3.19c-0.68-0.99-1.04-2.07-0.98-3.27c0.05-1.03,0.44-1.94,1.03-2.78
	C38.92,16,39.06,15.53,39.07,15.16z M2.85,40.83c1.35-2.17,2.71-4.33,4.06-6.5c0.42-0.67,0.25-1.44-0.36-1.81
	c-0.63-0.38-1.35-0.18-1.78,0.49c-0.43,0.68-0.85,1.35-1.28,2.03c-1.06,1.69-2.14,3.37-3.16,5.07c-0.65,1.09-0.32,2.47,0.71,3.22
	c0.69,0.5,1.45,0.54,2.25,0.4c1.17-0.21,2.35-0.39,3.54-0.59c0.04,0.12,0.07,0.21,0.1,0.31c0.34,1.14,0.67,2.29,1.01,3.43
	c0.3,1.01,0.97,1.67,2.01,1.81c1.03,0.14,1.89-0.25,2.46-1.15c1.53-2.4,3.05-4.82,4.57-7.23c0.2-0.32,0.25-0.68,0.14-1.04
	c-0.15-0.49-0.48-0.8-0.97-0.87c-0.57-0.09-1.01,0.13-1.32,0.62c-1.41,2.25-2.83,4.5-4.24,6.75c-0.07,0.11-0.14,0.21-0.24,0.35
	c-0.34-1.17-0.66-2.28-0.99-3.38c-0.1-0.33-0.2-0.67-0.37-0.98c-0.52-0.95-1.51-1.33-2.73-1.12c-1.2,0.21-2.4,0.39-3.67,0.6
	C2.7,41.08,2.77,40.95,2.85,40.83z M42.66,41.24c-1.14-0.19-2.29-0.39-3.43-0.57c-0.55-0.09-1.1-0.1-1.62,0.16
	c-0.69,0.34-1.11,0.9-1.32,1.63c-0.34,1.21-0.69,2.41-1.06,3.7c-0.1-0.16-0.17-0.26-0.23-0.36c-1.37-2.18-2.75-4.37-4.12-6.55
	c-0.43-0.68-1.18-0.88-1.8-0.5c-0.62,0.38-0.76,1.16-0.33,1.84c0.48,0.76,0.96,1.52,1.45,2.28c1.02,1.61,2.02,3.23,3.07,4.81
	c0.55,0.84,1.41,1.15,2.39,1.01c0.95-0.13,1.59-0.7,1.92-1.6c0.11-0.31,0.19-0.62,0.28-0.94c0.29-0.99,0.57-1.99,0.86-2.96
	c0.05-0.01,0.07-0.02,0.09-0.02c1.28,0.21,2.56,0.43,3.84,0.62c0.74,0.11,1.42-0.05,2-0.53c0.98-0.81,1.18-2.13,0.49-3.26
	c-0.62-1.01-1.25-2.01-1.88-3.01c-0.8-1.28-1.6-2.56-2.41-3.83c-0.36-0.57-0.88-0.8-1.43-0.66c-0.56,0.14-0.95,0.54-0.96,1.11
	c0,0.3,0.11,0.65,0.27,0.91c1.16,1.88,2.34,3.74,3.52,5.61c0.23,0.36,0.45,0.72,0.71,1.14C42.8,41.25,42.73,41.25,42.66,41.24z
	 M20.38,18.62c-0.57-0.54-1.44-0.42-1.88,0.24c-0.34,0.52-0.28,1.14,0.2,1.63c0.64,0.65,1.29,1.29,1.94,1.93
	c0.69,0.67,1.38,0.67,2.06-0.02c1.35-1.35,2.69-2.69,4.04-4.04c0.11-0.11,0.22-0.23,0.31-0.35c0.4-0.57,0.26-1.34-0.31-1.73
	c-0.55-0.38-1.17-0.3-1.7,0.24c-1.11,1.12-2.22,2.24-3.39,3.42C21.19,19.47,20.8,19.02,20.38,18.62z"/>
</svg>
