<?xml version="1.0" encoding="utf-8"?>
<!-- Generator: Adobe Illustrator 23.0.3, SVG Export Plug-In . SVG Version: 6.00 Build 0)  -->
<svg version="1.1" id="Capa_1" xmlns="http://www.w3.org/2000/svg" xmlns:xlink="http://www.w3.org/1999/xlink" x="0px" y="0px"
	 viewBox="0 0 81.91 91.18" style="enable-background:new 0 0 81.91 91.18;" xml:space="preserve">
<style type="text/css">
	.st0{fill:url(#SVGID_1_);}
</style>
<linearGradient id="SVGID_1_" gradientUnits="userSpaceOnUse" x1="1.818989e-12" y1="45.6059" x2="82.0036" y2="45.6059">
	<stop  offset="3.785202e-07" style="stop-color:#E39605"/>
	<stop  offset="1" style="stop-color:#F35252"/>
</linearGradient>
<path class="st0" d="M19.04,29.51c1-1.24,2.07-2.39,2.93-3.68c1.05-1.58,2.39-2.27,4.27-2.05c0.73,0.09,1.47,0.02,2.21,0.01
	c1.76-0.02,3.3,0.53,4.65,1.66c2.66,2.24,5.36,4.44,8.07,6.69c1.53-1.2,3.06-2.39,4.58-3.59c1.23-0.96,2.44-1.94,3.69-2.88
	c4.04-3.07,9.63-0.88,10.43,4.13c0.41,2.57-0.58,4.68-2.6,6.28c-3.99,3.15-7.99,6.28-12,9.4c-2.71,2.1-5.87,2.02-8.53-0.16
	c-1.25-1.02-2.5-2.06-3.84-3.16c-0.19,1.43-0.37,2.75-0.54,4.07c-0.62,4.7-1.25,9.4-1.84,14.1c-0.63,5-1.24,10-1.83,15
	c-0.43,3.68-0.75,7.38-1.25,11.06c-0.39,2.93-2.55,4.74-5.52,4.8c-1.94,0.04-3.88,0.03-5.82,0c-2.72-0.05-5.18-1.75-5.65-5.44
	C9.48,78.06,8.38,70.38,7.33,62.7c-0.13-0.98-0.25-1.97-0.41-2.94c-0.04-0.22-0.18-0.48-0.36-0.59c-2.7-1.71-3.95-4.24-4.33-7.34
	C1.58,46.51,0.89,41.2,0.12,35.9c-0.82-5.67,2.62-10.89,8.1-11.86c1.72-0.31,3.53-0.19,5.29-0.2c0.69,0,1.27,0.39,1.72,0.95
	C16.49,26.35,17.74,27.9,19.04,29.51z M11.01,28.49c-0.44,0-0.76-0.01-1.07,0c-3.09,0.15-5.63,3.12-5.23,6.05
	c0.76,5.53,1.52,11.07,2.21,16.61c0.26,2.11,1.04,3.74,3.15,4.54c0.76,0.29,1.18,0.92,1.29,1.74c0.31,2.28,0.63,4.55,0.95,6.83
	c0.65,4.76,1.3,9.52,1.95,14.28c0.33,2.38,0.66,4.76,0.98,7.14c0.06,0.47,0.26,0.8,0.79,0.8c1.98,0,3.97,0,5.95,0
	c0.54,0,0.81-0.28,0.87-0.8c0.34-3.16,0.67-6.33,1.03-9.49c0.51-4.44,1.03-8.88,1.58-13.31c0.59-4.71,1.22-9.41,1.83-14.11
	c0.49-3.74,1.05-7.47,1.43-11.23c0.19-1.85,2.44-3.05,4.1-1.56c2.17,1.94,4.47,3.73,6.71,5.59c1.12,0.93,1.92,0.94,3.05,0.05
	c2.9-2.28,5.8-4.56,8.7-6.85c1.11-0.87,2.23-1.74,3.32-2.64c0.65-0.54,0.8-1.36,0.47-2.13c-0.3-0.69-1-1.13-1.8-0.98
	c-0.43,0.08-0.88,0.31-1.23,0.58c-3.06,2.39-6.09,4.81-9.14,7.21c-1.25,0.99-2.32,0.98-3.54-0.02c-2.57-2.12-5.21-4.17-7.66-6.42
	c-1.57-1.44-3.21-2.2-5.34-1.9c-0.36,0.05-0.61,0.12-0.84,0.41c-1.22,1.56-2.46,3.11-3.71,4.65c-1.66,2.05-3.95,2.04-5.62-0.02
	c-1.07-1.33-2.17-2.64-3.18-4.01C12.47,28.72,11.88,28.23,11.01,28.49z M70.69,43.65c-0.05,0.12-0.1,0.23-0.15,0.35
	c-2.06,4.45-5.07,8.1-9.15,10.82c-5.7,3.79-11.95,5.27-18.72,4.17c-1.88-0.31-3.71-0.92-5.54-1.46c-0.9-0.26-1.76-0.34-2.51,0.28
	c-1.5,1.22-1.09,3.38,0.76,4.1c6.05,2.36,12.27,2.86,18.56,1.29c9.57-2.39,16.5-8.12,20.82-17c0.15-0.3,0.28-0.61,0.46-1
	c0.14,0.32,0.24,0.53,0.33,0.75c0.63,1.49,1.26,2.99,1.9,4.48c0.52,1.19,1.54,1.79,2.65,1.56c1.6-0.32,2.35-1.81,1.67-3.42
	c-1.42-3.38-2.86-6.75-4.29-10.12c-0.72-1.69-1.91-2.18-3.62-1.46c-1.92,0.81-3.84,1.63-5.75,2.45c-1.49,0.63-3,1.24-4.47,1.91
	c-1.57,0.71-1.95,2.55-0.84,3.79c0.7,0.77,1.72,0.96,2.85,0.48c1.68-0.71,3.35-1.45,5.1-2.2C70.7,43.56,70.71,43.61,70.69,43.65z
	 M30.3,11.11c0.14,6.01-4.9,11.16-11.05,11.29c-6.03,0.12-11.18-4.82-11.32-10.86C7.78,5.25,12.67,0.13,18.95,0
	C25.08-0.12,30.16,4.85,30.3,11.11z M25.59,11.24c0.05-3.52-2.89-6.49-6.45-6.53c-3.48-0.03-6.48,2.87-6.53,6.32
	c-0.05,3.62,2.79,6.62,6.35,6.69C22.58,17.78,25.54,14.88,25.59,11.24z M76.58,62.13c0-1.1,0.03-2.19-0.03-3.29
	c-0.06-1.25-1.11-2.18-2.36-2.16c-1.38,0.02-2.32,1.09-2.32,2.68c0,8.39,0,16.78,0,25.17c0,0.31,0.02,0.64,0.09,0.94
	c0.21,0.94,0.96,1.62,1.86,1.75c1.07,0.15,1.95-0.21,2.39-1.13c0.23-0.47,0.33-1.04,0.34-1.57c0.03-4.17,0.01-8.35,0.01-12.52
	C76.58,68.71,76.58,65.42,76.58,62.13z M60.71,84.55c0,1.67,0.89,2.69,2.33,2.72c1.46,0.03,2.44-1.24,2.38-2.75
	c-0.08-2.17-0.02-4.34-0.02-6.52c0-3.35,0-6.71,0-10.06c0-1.13-0.62-2.05-1.55-2.38c-1.56-0.54-3.12,0.57-3.14,2.28
	c-0.02,2.85-0.01,5.7-0.01,8.54C60.71,79.1,60.71,81.82,60.71,84.55z M38.35,81.5c0.01,1.24-0.02,2.49,0.06,3.73
	c0.07,1.01,0.85,1.81,1.76,1.98c1.15,0.22,2.11-0.19,2.58-1.22c0.2-0.44,0.29-0.97,0.3-1.46c0.02-4.36,0.01-8.72,0.01-13.08
	c0-0.27-0.02-0.55-0.06-0.82c-0.18-1.09-1.1-1.87-2.2-1.91c-1.45-0.04-2.44,0.98-2.45,2.6c-0.02,2.23,0,4.47,0,6.7
	C38.35,79.19,38.34,80.35,38.35,81.5z M49.55,78.03c0,2.25-0.01,4.51,0,6.76c0.01,1.47,0.95,2.45,2.31,2.47
	c1.36,0.01,2.37-0.97,2.38-2.41c0.02-4.57,0.01-9.14,0-13.72c0-0.72-0.25-1.37-0.82-1.85c-0.75-0.62-1.6-0.75-2.48-0.37
	c-0.9,0.39-1.37,1.12-1.38,2.09C49.54,73.35,49.55,75.69,49.55,78.03C49.55,78.03,49.55,78.03,49.55,78.03z"/>
</svg>
