<?xml version="1.0" encoding="utf-8"?>
<!-- Generator: Adobe Illustrator 23.0.3, SVG Export Plug-In . SVG Version: 6.00 Build 0)  -->
<svg version="1.1" id="Capa_1" xmlns="http://www.w3.org/2000/svg" xmlns:xlink="http://www.w3.org/1999/xlink" x="0px" y="0px"
	 viewBox="0 0 64.67 54.57" style="enable-background:new 0 0 64.67 54.57;" xml:space="preserve">
<style type="text/css">
	.st0{fill:url(#SVGID_1_);}
</style>
<linearGradient id="SVGID_1_" gradientUnits="userSpaceOnUse" x1="9.094947e-13" y1="27.2873" x2="64.6721" y2="27.2873">
	<stop  offset="3.736044e-07" style="stop-color:#09BEF1"/>
	<stop  offset="1" style="stop-color:#045DE1"/>
</linearGradient>
<path class="st0" d="M13.13,21.79c-0.26,0-0.46,0-0.66,0c-3.4,0-6.8,0-10.2,0C0.86,21.79,0,20.94,0,19.53C0,13.76,0,7.99,0,2.22
	C0,0.88,0.88,0,2.21,0c20.08,0,40.15,0,60.23,0c1.36,0,2.23,0.88,2.23,2.25c0,5.75,0,11.51,0,17.26c0,1.44-0.85,2.28-2.29,2.28
	c-3.38,0-6.76,0-10.15,0c-0.2,0-0.4,0-0.68,0c0,0.26,0,0.49,0,0.72c0,13.23,0,16.36,0,29.58c0,0.27,0,0.54-0.02,0.81
	c-0.08,0.86-0.77,1.56-1.64,1.65c-0.2,0.02-0.4,0.02-0.6,0.02c-11.31,0-22.62,0-33.92,0c-1.19,0-1.89-0.46-2.16-1.43
	c-0.07-0.27-0.07-0.56-0.07-0.85c0-13.29,0-16.49,0-29.78C13.13,22.3,13.13,22.08,13.13,21.79z M16.68,15.02
	c0,15.29,0,20.47,0,35.75c10.46,0,20.88,0,31.32,0c0-15.3,0-20.47,0-35.75C37.55,15.02,27.14,15.02,16.68,15.02z M13.1,15
	c-0.23,0-0.42,0-0.62,0c-1.14,0-2.29,0.02-3.43-0.02c-0.86-0.03-1.47-0.65-1.55-1.5c-0.09-0.93,0.38-1.7,1.21-1.91
	c0.29-0.07,0.6-0.07,0.9-0.07c15.14,0,30.29,0,45.43,0c0.19,0,0.37,0,0.56,0.01c0.93,0.04,1.56,0.72,1.58,1.69
	c0.02,1.06-0.52,1.75-1.49,1.79c-1.16,0.05-2.32,0.02-3.48,0.03c-0.2,0-0.39,0-0.61,0c0,1.12,0,2.17,0,3.25c3.11,0,6.2,0,9.29,0
	c0-4.83,0-9.64,0-14.45c-19.05,0-38.07,0-57.07,0c0,4.84,0,9.65,0,14.45c3.13,0,6.21,0,9.3,0C13.1,17.15,13.1,16.1,13.1,15z
	 M34.99,40.99c0.01-0.24-0.07-0.49,0.29-0.6c0.9-0.29,1.63-0.84,2.27-1.54c1.5-1.65,1.65-4.26,0.33-6.06
	c-1.13-1.54-2.67-2.23-4.54-2.35c-0.45-0.03-0.94-0.15-1.34-0.37c-0.89-0.5-1.04-1.55-0.4-2.27c0.77-0.86,2.7-1.04,3.56,0.31
	c0.56,0.89,1.53,1.05,2.41,0.46c0.79-0.52,1-1.51,0.48-2.35c-0.61-0.99-1.45-1.73-2.55-2.13c-0.4-0.15-0.53-0.34-0.53-0.76
	c-0.02-1.1-0.69-1.75-1.72-1.75c-1.02,0-1.73,0.69-1.74,1.75c0,0.42-0.14,0.59-0.52,0.76c-1.91,0.82-3.12,2.25-3.25,4.36
	c-0.13,2.09,0.86,3.64,2.63,4.72c0.92,0.56,1.95,0.68,2.99,0.79c0.48,0.05,0.99,0.25,1.37,0.53c0.79,0.57,0.75,1.63-0.01,2.25
	c-1.02,0.84-2.56,0.62-3.37-0.49c-0.62-0.85-1.58-1.04-2.38-0.48c-0.89,0.63-1.07,1.55-0.47,2.46c0.6,0.91,1.38,1.61,2.4,2
	c0.43,0.16,0.61,0.36,0.61,0.85c0,1.05,0.71,1.68,1.74,1.68C34.33,42.78,34.95,42.14,34.99,40.99z"/>
</svg>
