<?xml version="1.0" encoding="utf-8"?>
<!-- Generator: Adobe Illustrator 23.0.3, SVG Export Plug-In . SVG Version: 6.00 Build 0)  -->
<svg version="1.1" id="Capa_1" xmlns="http://www.w3.org/2000/svg" xmlns:xlink="http://www.w3.org/1999/xlink" x="0px" y="0px"
	 viewBox="0 0 84.92 95.17" style="enable-background:new 0 0 84.92 95.17;" xml:space="preserve">
<style type="text/css">
	.st0{fill:url(#SVGID_1_);}
</style>
<linearGradient id="SVGID_1_" gradientUnits="userSpaceOnUse" x1="2.091529e-05" y1="47.5875" x2="84.6409" y2="47.5875">
	<stop  offset="3.785202e-07" style="stop-color:#E39605"/>
	<stop  offset="1" style="stop-color:#F35252"/>
</linearGradient>
<path class="st0" d="M63.82,72.32c1.02-3.97-1.46-6.38-3.63-7.61c2.16-0.07,4.77-1.19,5.59-4.42c0.9-3.5-0.7-6.39-4.79-8.01
	l1.07-4.16l-3.75-0.96l-1.04,4.04l-2.7-0.69l1.04-4.04l-3.75-0.96l-1.04,4.04l-4.21-1.08l-6.63,25.79l4.21,1.08l-0.94,3.64
	l3.75,0.96l0.94-3.64l2.7,0.69l-0.94,3.64l3.75,0.96l0.96-3.75C58.76,78.41,62.66,76.86,63.82,72.32z M49.47,52.35l8.04,2.07
	c3,0.77,5.15,2.27,4.38,5.23c-0.64,2.5-2.78,3.36-6.49,2.41l-7.9-2.03L49.47,52.35z M52.57,74.33l-8.21-2.11l2.38-9.25l7.86,2.02
	c4.12,1.06,6.16,3.25,5.37,6.35C59.02,75,55.6,75.11,52.57,74.33z M24.17,39.48c0,1.11,0.04,2.23-0.01,3.34
	c-0.05,1.28-1.3,2.08-2.51,1.67c-0.72-0.24-1.27-0.95-1.27-1.71c-0.01-2.2-0.02-4.4,0-6.6c0.01-0.99,0.84-1.79,1.81-1.81
	c1.07-0.02,1.93,0.69,1.97,1.72C24.21,37.22,24.17,38.35,24.17,39.48C24.17,39.48,24.17,39.48,24.17,39.48z M22.27,53.49
	c-5.8,0-11.61,0-17.41,0c-0.14,0-0.29,0.01-0.43-0.01c-0.38-0.04-0.6-0.25-0.61-0.64c0-0.11,0-0.23,0-0.34c0-8.68,0-17.35,0-26.03
	c0-0.85,0.14-0.99,1-0.99c11.63,0,23.27,0,34.9,0c0.89,0,1.02,0.12,1.02,1.01c0,2.63,0,5.27,0,7.9c1.24-0.52,2.52-0.96,3.83-1.33
	c0-0.33,0-0.66,0-0.98c0-2.01,0.02-4.03-0.01-6.04c-0.03-2.02-1.45-3.8-3.42-4.24c-0.59-0.13-1.22-0.12-1.83-0.15
	c-0.57-0.02-1.13,0-1.74,0c0-0.23,0-0.4,0-0.57c0-1.83,0.03-3.66-0.01-5.49c-0.03-1.08-0.1-2.18-0.3-3.23
	c-1.59-8.3-9.7-13.73-17.98-12.05C12.21,1.73,7.1,7.88,7,15.08c-0.03,2.01-0.01,4.03-0.01,6.04c0,0.15,0,0.31,0,0.52
	c-0.8,0-1.53,0-2.25,0C1.91,21.65,0,23.56,0,26.38c0,8.73,0,17.46,0,26.19c0,0.38,0.01,0.78,0.09,1.15c0.45,2.19,2.27,3.6,4.63,3.6
	c5.76,0,11.52,0,17.28,0c0.26-1.31,0.61-2.58,1.03-3.83C22.78,53.49,22.52,53.49,22.27,53.49z M10.86,14.61
	c0.13-3.03,1.34-5.61,3.56-7.68c2.52-2.36,5.56-3.36,8.97-3.04c5.27,0.49,9.45,4.46,10.19,9.63c0.1,0.72,0.15,1.45,0.16,2.18
	c0.02,1.81,0.01,3.63,0.01,5.44c0,0.15,0,0.31,0,0.5c-7.67,0-15.26,0-22.89,0c-0.02-0.12-0.04-0.23-0.04-0.34
	C10.82,19.06,10.77,16.83,10.86,14.61z M27.28,53.49c-1.42,0-2.84,0-4.25,0c2.9-8.61,9.4-15.58,17.71-19.1c0,1.47,0,2.94,0,4.41
	C34.62,41.85,29.79,47.09,27.28,53.49z M84.64,63.55c0,17.44-14.19,31.63-31.63,31.63S21.38,80.99,21.38,63.55
	c0-2.13,0.21-4.21,0.62-6.22c1.37,0,2.73,0,4.1,0c-0.46,2-0.71,4.08-0.71,6.22c0,15.23,12.39,27.63,27.63,27.63
	s27.63-12.39,27.63-27.63S68.25,35.92,53.01,35.92c-2.95,0-5.78,0.47-8.45,1.33c0-1.39,0-2.78,0-4.17c2.69-0.75,5.52-1.15,8.44-1.15
	C70.45,31.92,84.64,46.11,84.64,63.55z M40.74,34.4c1.24-0.52,2.52-0.96,3.83-1.33c0,1.39,0,2.78,0,4.17
	c-1.32,0.43-2.6,0.95-3.83,1.56C40.74,37.33,40.74,35.87,40.74,34.4z M40.74,34.4c1.24-0.52,2.52-0.96,3.83-1.33
	c0,1.39,0,2.78,0,4.17c-1.32,0.43-2.6,0.95-3.83,1.56C40.74,37.33,40.74,35.87,40.74,34.4z M22,57.32c0.26-1.31,0.61-2.58,1.03-3.83
	c1.42,0,2.84,0,4.25,0c-0.49,1.24-0.88,2.52-1.19,3.83C24.73,57.33,23.37,57.32,22,57.32z M22,57.32c0.26-1.31,0.61-2.58,1.03-3.83
	c1.42,0,2.84,0,4.25,0c-0.49,1.24-0.88,2.52-1.19,3.83C24.73,57.33,23.37,57.32,22,57.32z"/>
</svg>
